<svg width="18" height="18" viewBox="0 0 18 18" fill="none" xmlns="http://www.w3.org/2000/svg">
<path opacity="0.5" d="M0.514579 0.514718C0.00795007 1.02135 0.00794973 1.84262 0.514578 2.34925L7.16533 9L0.514578 15.6508C0.00794977 16.1574 0.00795007 16.9787 0.514579 17.4853C1.02121 17.9919 1.84248 17.9919 2.3491 17.4853L8.99986 10.8345L15.6506 17.4853C16.1572 17.9919 16.9785 17.9919 17.4851 17.4853C17.9918 16.9787 17.9918 16.1574 17.4851 15.6508L10.8344 9L17.4851 2.34925C17.9918 1.84262 17.9918 1.02135 17.4851 0.514719C16.9785 0.00809073 16.1572 0.00809006 15.6506 0.514719L8.99986 7.16547L2.34911 0.514717C1.84248 0.00808837 1.02121 0.00808938 0.514579 0.514718Z" fill="#303030"/>
</svg>
