<svg width="24" height="28" viewBox="0 0 24 28" fill="none" xmlns="http://www.w3.org/2000/svg">
<path d="M18.3389 0.668704H5.80063C2.71559 0.668704 0.206543 3.17775 0.206543 6.26279V21.7406C0.206543 24.8256 2.71559 27.3346 5.80063 27.3346H18.3426C21.4276 27.3346 23.9367 24.8256 23.9367 21.7406L23.9369 6.25838C23.9332 3.17731 21.4239 0.667969 18.3391 0.667969L18.3389 0.668704ZM22.0264 6.25911V7.31165H16.8555V2.57566H18.339C20.3715 2.57566 22.0265 4.22662 22.0265 6.25911H22.0264ZM18.3389 25.425H5.80063C3.76814 25.425 2.11313 23.77 2.11313 21.7375V6.25904C2.11313 4.22654 3.76814 2.57154 5.80063 2.57154H14.953V9.2142H22.0306V21.7333C22.0269 23.7698 20.3718 25.4248 18.3394 25.4248L18.3389 25.425Z" fill="#007CC2"/>
<path d="M13.0224 17.1199V12.2578H11.1158V17.1427L9.25881 15.2857L7.90894 16.6356L10.9061 19.6327C11.2227 19.9493 11.6384 20.1093 12.0578 20.1093C12.4734 20.1093 12.8928 19.949 13.2094 19.6327L16.2295 16.6126L14.8797 15.2628L13.0224 17.1199Z" fill="#007CC2"/>
</svg>
