<svg width="20" height="20" viewBox="0 0 20 20" fill="none" xmlns="http://www.w3.org/2000/svg">
<path d="M6.24986 6.3918V5.58346C6.24986 3.70846 7.75819 1.8668 9.63319 1.6918C10.1542 1.64061 10.6801 1.69907 11.1771 1.86341C11.6741 2.02775 12.1312 2.29434 12.519 2.646C12.9068 2.99767 13.2166 3.42663 13.4286 3.90527C13.6406 4.38392 13.75 4.90164 13.7499 5.42513V6.57513M7.49986 18.3335H12.4999C15.8499 18.3335 16.4499 16.9918 16.6249 15.3585L17.2499 10.3585C17.4749 8.32513 16.8915 6.6668 13.3332 6.6668H6.66652C3.10819 6.6668 2.52486 8.32513 2.74986 10.3585L3.37486 15.3585C3.54986 16.9918 4.14986 18.3335 7.49986 18.3335Z" stroke="white" stroke-width="1.5" stroke-miterlimit="10" stroke-linecap="round" stroke-linejoin="round"/>
<path d="M12.9124 10H12.9208M7.0791 10H7.08577" stroke="white" stroke-width="2" stroke-linecap="round" stroke-linejoin="round"/>
</svg>
