<svg width="18" height="18" viewBox="0 0 18 18" fill="none" xmlns="http://www.w3.org/2000/svg">
<path opacity="0.5" d="M0.516532 0.514718C0.00990319 1.02135 0.00990285 1.84262 0.516531 2.34925L7.16729 9L0.516532 15.6508C0.0099029 16.1574 0.00990319 16.9787 0.516532 17.4853C1.02316 17.9919 1.84443 17.9919 2.35106 17.4853L9.00181 10.8345L15.6526 17.4853C16.1592 17.9919 16.9805 17.9919 17.4871 17.4853C17.9937 16.9787 17.9937 16.1574 17.4871 15.6508L10.8363 9L17.4871 2.34925C17.9937 1.84262 17.9937 1.02135 17.4871 0.514719C16.9805 0.00809073 16.1592 0.00809006 15.6526 0.514719L9.00181 7.16547L2.35106 0.514717C1.84443 0.00808837 1.02316 0.00808938 0.516532 0.514718Z" fill="#F68E1E"/>
</svg>
