<svg width="19" height="14" viewBox="0 0 19 14" fill="none" xmlns="http://www.w3.org/2000/svg">
<path d="M17.8394 0.00297978C17.9068 0.013099 17.9243 0.013099 17.9904 0.0315522C18.1638 0.081554 18.3221 0.189592 18.441 0.339007C18.5084 0.424427 18.5633 0.521749 18.6012 0.627109C18.6391 0.731875 18.6608 0.844381 18.6657 0.957178C18.6797 1.3313 18.4982 1.69054 18.2039 1.87325C18.1141 1.92801 18.0165 1.96671 17.916 1.98516C17.8485 1.99855 17.831 1.99647 17.763 1.99975H0.903075C0.835065 1.99647 0.817591 1.99855 0.750661 1.98516C0.573515 1.95183 0.407385 1.85927 0.278087 1.72176C0.203896 1.64319 0.142602 1.55122 0.0969082 1.44973C0.050672 1.34913 0.0205635 1.23901 0.00712367 1.1271C-0.0288974 0.815176 0.0732518 0.494928 0.278087 0.277694C0.333463 0.219061 0.395557 0.168464 0.462226 0.126497C0.55201 0.0717334 0.649591 0.0330378 0.750661 0.0145838C0.817596 0.00119061 0.835071 0.00327402 0.903075 0H17.763C17.7883 0.00119052 17.8141 0.00267863 17.8394 0.00327392V0.00297978Z" fill="#303030"/>
<path d="M17.8398 6.00234C17.9072 6.01246 17.9247 6.01246 17.9908 6.03091C18.1642 6.08091 18.3225 6.18895 18.4414 6.33837C18.5088 6.42379 18.5637 6.52111 18.6016 6.62647C18.7274 6.97321 18.6642 7.37917 18.4414 7.6598C18.3739 7.74522 18.2933 7.81724 18.204 7.87261C18.1142 7.92737 18.0166 7.96607 17.9161 7.98452C17.8486 7.99791 17.8312 7.99583 17.7631 7.9991H0.903209C0.835199 7.99583 0.817725 7.99791 0.750795 7.98452C0.649718 7.96577 0.552143 7.92708 0.462359 7.87261C0.214779 7.71873 0.0432829 7.43807 0.00725769 7.12645C-0.00241923 7.04192 -0.00241923 6.9565 0.00725769 6.87167C0.0204298 6.75976 0.050537 6.64964 0.0970422 6.54904C0.14274 6.44785 0.204299 6.35558 0.278221 6.27701C0.407788 6.1398 0.573917 6.04694 0.750795 6.01361C0.81773 6.00021 0.835205 6.0023 0.903209 5.99902H17.7631C17.7884 6.00021 17.8142 6.0017 17.8395 6.0023L17.8398 6.00234Z" fill="#303030"/>
<path d="M17.8411 12.0033C17.9085 12.0135 17.926 12.0135 17.9921 12.0319C18.1655 12.0819 18.3239 12.19 18.4427 12.3394C18.6655 12.62 18.7287 13.026 18.6029 13.3727C18.565 13.4781 18.5101 13.5754 18.4427 13.6608C18.3752 13.7462 18.2946 13.8183 18.2053 13.8736C18.1155 13.9284 18.0179 13.9671 17.9174 13.9855C17.8499 13.9989 17.8325 13.9968 17.7645 14.0001H0.904513C0.836504 13.9968 0.81903 13.9989 0.7521 13.9855C0.574953 13.9522 0.408824 13.8596 0.279526 13.7221C0.22415 13.6635 0.176033 13.5968 0.135714 13.5242C-0.0137476 13.2569 -0.0395545 12.9188 0.0663603 12.6274C0.1048 12.522 0.159104 12.4247 0.226572 12.3393C0.294039 12.2539 0.374685 12.1819 0.463932 12.1265C0.553717 12.0717 0.651297 12.033 0.752367 12.0146C0.819302 12.0012 0.836777 12.0033 0.904781 12H17.7647C17.79 12.0012 17.8158 12.0027 17.8411 12.0033V12.0033Z" fill="#303030"/>
</svg>
