<svg width="14" height="13" viewBox="0 0 14 13" fill="none" xmlns="http://www.w3.org/2000/svg">
<path d="M11.9752 5.48957H8.00994V1.52428C8.00994 0.932647 7.52681 0.449512 6.93517 0.449512H2.02477C1.43314 0.449512 0.95 0.932647 0.95 1.52428V6.43469C0.95 7.02632 1.43314 7.50945 2.02477 7.50945H5.99006V11.4747C5.99006 12.0664 6.4733 12.5495 7.06483 12.5495H11.9752C12.5693 12.5495 13.05 12.0662 13.05 11.4747V6.56434C13.05 5.97271 12.5669 5.48957 11.9752 5.48957ZM2.02482 6.92957C1.7524 6.92957 1.52998 6.70717 1.52998 6.43474V1.52433C1.52998 1.25191 1.75239 1.0295 2.02482 1.0295H6.93523C7.20765 1.0295 7.43006 1.2519 7.43006 1.52433V5.48962H7.06483C6.47319 5.48962 5.99006 5.97276 5.99006 6.56439V6.92962L2.02482 6.92957ZM12.4701 11.4747C12.4701 11.7471 12.2477 11.9695 11.9753 11.9695H7.06488C6.79246 11.9695 6.57004 11.7471 6.57004 11.4747V6.56429C6.57004 6.29186 6.79245 6.06945 7.06488 6.06945H11.9753C12.2477 6.06945 12.4701 6.29185 12.4701 6.56429V11.4747Z" fill="white" stroke="white" stroke-width="0.1"/>
<path d="M3.19459 5.12042L3.19428 5.1205C3.04899 5.15663 2.96476 5.31207 2.9947 5.46306C3.0201 5.59597 3.12813 5.69244 3.25343 5.69244C3.2725 5.69244 3.29097 5.68947 3.30511 5.68719L3.3063 5.687L3.30632 5.68716L3.31015 5.68623C3.75793 5.57761 4.12856 5.31296 4.42999 4.99793C4.731 5.31034 5.10091 5.57469 5.54787 5.68581C5.56976 5.69248 5.59084 5.69246 5.60442 5.69244C5.60506 5.69244 5.60568 5.69244 5.60628 5.69244C5.73222 5.69244 5.83732 5.59526 5.86487 5.46376L5.86489 5.46376L5.86514 5.46238C5.89225 5.3121 5.80839 5.15662 5.66298 5.12057L5.64083 5.11507C5.30835 5.02928 5.02286 4.82141 4.78296 4.56732C5.08996 4.13603 5.28588 3.69989 5.38338 3.45699H5.92907C6.07941 3.45699 6.19293 3.32165 6.19293 3.16793C6.19293 3.01421 6.07941 2.87886 5.92908 2.87886C5.92908 2.87886 5.92907 2.87886 5.92907 2.87886L4.69138 2.87876V2.45293C4.69138 2.29921 4.57786 2.16387 4.42753 2.16387C4.2772 2.16387 4.16368 2.29921 4.16368 2.45293V2.87876H2.92821C2.77788 2.87876 2.66436 3.01411 2.66436 3.16783C2.66436 3.32155 2.77788 3.45689 2.92821 3.45689H3.47376C3.56966 3.69826 3.76737 4.13615 4.07432 4.56723C3.82911 4.82686 3.53436 5.03823 3.19459 5.12042ZM4.05818 3.45689H4.79683C4.70922 3.64571 4.58685 3.88153 4.42751 4.11924C4.26816 3.88152 4.14579 3.64571 4.05818 3.45689Z" fill="white" stroke="white" stroke-width="0.1"/>
<path d="M9.84364 7.46526L9.84364 7.46526L9.84337 7.46473C9.79372 7.36618 9.68486 7.30645 9.56871 7.30645C9.45359 7.30645 9.34108 7.36545 9.29363 7.46557L8.27858 9.54357L8.27854 9.54364L7.83097 10.4637L7.83097 10.4637L7.83086 10.4639C7.76315 10.605 7.84404 10.7606 7.99426 10.8137L7.99426 10.8137L7.99534 10.8141C8.03147 10.8259 8.06929 10.8337 8.10846 10.8337C8.22116 10.8337 8.33339 10.7767 8.38335 10.6749L8.38338 10.6749L8.75477 9.91578H10.3876L10.7589 10.6746C10.7589 10.6746 10.7589 10.6747 10.759 10.6747C10.8246 10.8112 11.0012 10.8678 11.1481 10.8159C11.2985 10.7627 11.3793 10.6071 11.3116 10.4661L11.3114 10.4658L9.84364 7.46526ZM10.1264 9.3868H9.01102L9.56871 8.24064L10.1264 9.3868Z" fill="white" stroke="white" stroke-width="0.1"/>
</svg>
