<svg width="16" height="17" viewBox="0 0 16 17" fill="none" xmlns="http://www.w3.org/2000/svg">
<path d="M7.59482 10.5951L7.59474 10.595H8.72565C11.4711 10.595 13.6976 12.8216 13.7652 15.602L2.21798 15.6021C2.2856 12.8212 4.51221 10.5951 7.24048 10.5951H7.59482ZM14.8668 15.7323L14.8668 15.7312C14.8493 12.2944 12.1182 9.49727 8.74279 9.49727H7.25754C3.86558 9.49727 1.1335 12.2941 1.1335 15.7323C1.1335 16.2573 1.56038 16.6997 2.08461 16.6998C2.08464 16.6998 2.08467 16.6998 2.0847 16.6998H13.9156C14.4399 16.6998 14.8668 16.2573 14.8668 15.7323Z" fill="white" stroke="white" stroke-width="0.4"/>
<path d="M7.99089 7.67704C9.60774 7.67704 10.9225 6.32759 10.9225 4.68622V3.29081C10.9225 1.64948 9.60778 0.3 7.99089 0.3C6.374 0.3 5.05928 1.64945 5.05928 3.29081V4.68622C5.05928 6.32756 6.37399 7.67704 7.99089 7.67704ZM6.14213 3.29091C6.14213 2.24608 6.97845 1.39787 7.99076 1.39787C9.00308 1.39787 9.83939 2.24608 9.83939 3.29091V4.68632C9.83939 5.73114 9.00308 6.57935 7.99076 6.57935C6.97845 6.57935 6.14213 5.73114 6.14213 4.68632V3.29091Z" fill="white" stroke="white" stroke-width="0.4"/>
</svg>
