<svg width="18" height="16" viewBox="0 0 18 16" fill="none" xmlns="http://www.w3.org/2000/svg">
<path fill-rule="evenodd" clip-rule="evenodd" d="M0.609189 4.93846C1.84742 1.94911 4.76447 0 8.00012 0C12.4183 0 16 3.58167 16 7.99988C16 11.2355 14.0509 14.1526 11.0615 15.3908C8.07219 16.629 4.6313 15.9446 2.34335 13.6567C0.0553948 11.3687 -0.629041 7.92781 0.609189 4.93846ZM14.4526 7.99986C14.4526 4.43678 11.5641 1.54834 8.00106 1.54834C4.44034 1.55402 1.55523 4.43914 1.54954 7.99986C1.54954 11.5629 4.43799 14.4514 8.00106 14.4514C11.5641 14.4514 14.4526 11.5629 14.4526 7.99986Z" fill="white"/>
<path d="M16.5018 16.0005C16.3171 15.9998 16.1402 15.9263 16.0093 15.796L13.2218 13.0078C13.0354 12.834 12.9586 12.5723 13.0217 12.3254C13.0847 12.0784 13.2775 11.8855 13.5245 11.8225C13.7714 11.7594 14.033 11.8362 14.2067 12.0227L16.9943 14.8109C17.1259 14.9409 17.2 15.1183 17.2 15.3034C17.2 15.4885 17.1259 15.6659 16.9943 15.796C16.8634 15.9263 16.6865 15.9998 16.5018 16.0005Z" fill="white"/>
</svg>
