<svg width="36" height="36" viewBox="0 0 36 36" fill="none" xmlns="http://www.w3.org/2000/svg">
<circle cx="18" cy="18" r="18" fill="#007CC2"/>
<rect opacity="0.01" x="8" y="8" width="20" height="20" fill="white"/>
<path fill-rule="evenodd" clip-rule="evenodd" d="M10.5989 14.7631C11.8163 11.8799 14.6842 10 17.8653 10C22.2091 10 25.7305 13.4545 25.7305 17.7158C25.7305 20.8366 23.8142 23.65 20.8752 24.8443C17.9362 26.0386 14.5533 25.3784 12.3039 23.1717C10.0545 20.965 9.38156 17.6463 10.5989 14.7631ZM24.2091 17.7155C24.2091 14.279 21.3693 11.4931 17.8663 11.4931C14.3655 11.4986 11.529 14.2813 11.5234 17.7155C11.5234 21.1521 14.3632 23.938 17.8663 23.938C21.3693 23.938 24.2091 21.1521 24.2091 17.7155Z" fill="white"/>
<path d="M26.2692 25.9995C26.076 25.9988 25.8908 25.9254 25.7538 25.795L22.8366 23.0068C22.6415 22.8331 22.5612 22.5714 22.6272 22.3244C22.6932 22.0774 22.895 21.8846 23.1534 21.8215C23.4118 21.7584 23.6856 21.8352 23.8674 22.0217L26.7846 24.8099C26.9224 24.94 26.9999 25.1174 26.9999 25.3025C26.9999 25.4876 26.9224 25.665 26.7846 25.795C26.6476 25.9254 26.4625 25.9988 26.2692 25.9995Z" fill="white"/>
</svg>
