<svg width="18" height="18" viewBox="0 0 18 18" fill="none" xmlns="http://www.w3.org/2000/svg">
<rect opacity="0.01" width="18" height="18" fill="#ACACAC"/>
<path fill-rule="evenodd" clip-rule="evenodd" d="M2.93647 6.36943C3.91792 3.99999 6.23005 2.45508 8.79471 2.45508C12.2967 2.45508 15.1356 5.294 15.1356 8.79599C15.1356 11.3606 13.5907 13.6728 11.2213 14.6542C8.85183 15.6357 6.1245 15.0932 4.31101 13.2797C2.49752 11.4662 1.95502 8.73886 2.93647 6.36943ZM13.9084 8.79625C13.9084 5.97207 11.619 3.68262 8.79479 3.68262C5.97247 3.68712 3.68566 5.97394 3.68115 8.79625C3.68115 11.6204 5.9706 13.9099 8.79479 13.9099C11.619 13.9099 13.9084 11.6204 13.9084 8.79625Z" fill="#ACACAC"/>
<path d="M2.93647 6.36943L2.7055 6.27376L2.93647 6.36943ZM11.2213 14.6542L11.1256 14.4233L11.2213 14.6542ZM4.31101 13.2797L4.48778 13.1029L4.31101 13.2797ZM8.79479 3.68262V3.43262L8.79439 3.43262L8.79479 3.68262ZM3.68115 8.79625L3.43115 8.79585V8.79625H3.68115ZM8.79471 2.20508C6.12893 2.20508 3.72565 3.8109 2.7055 6.27376L3.16744 6.4651C4.1102 4.18908 6.33116 2.70508 8.79471 2.70508V2.20508ZM15.3856 8.79599C15.3856 5.15593 12.4348 2.20508 8.79471 2.20508V2.70508C12.1586 2.70508 14.8856 5.43207 14.8856 8.79599H15.3856ZM11.3169 14.8852C13.7798 13.865 15.3856 11.4618 15.3856 8.79599H14.8856C14.8856 11.2595 13.4016 13.4805 11.1256 14.4233L11.3169 14.8852ZM4.13423 13.4565C6.01922 15.3414 8.85409 15.9053 11.3169 14.8852L11.1256 14.4233C8.84958 15.366 6.22977 14.8449 4.48778 13.1029L4.13423 13.4565ZM2.7055 6.27376C1.68535 8.73661 2.24924 11.5715 4.13423 13.4565L4.48778 13.1029C2.7458 11.3609 2.22468 8.74111 3.16744 6.4651L2.7055 6.27376ZM8.79479 3.93262C11.4809 3.93262 13.6584 6.11014 13.6584 8.79625H14.1584C14.1584 5.834 11.757 3.43262 8.79479 3.43262V3.93262ZM3.93115 8.79665C3.93544 6.1121 6.11063 3.9369 8.79519 3.93262L8.79439 3.43262C5.83431 3.43734 3.43588 5.83578 3.43115 8.79585L3.93115 8.79665ZM8.79479 13.6599C6.10868 13.6599 3.93115 11.4824 3.93115 8.79625H3.43115C3.43115 11.7585 5.83253 14.1599 8.79479 14.1599V13.6599ZM13.6584 8.79625C13.6584 11.4824 11.4809 13.6599 8.79479 13.6599V14.1599C11.757 14.1599 14.1584 11.7585 14.1584 8.79625H13.6584Z" fill="#ACACAC"/>
<path d="M15.5698 15.6037C15.414 15.6031 15.2647 15.5428 15.1543 15.4357L12.8024 13.1443C12.6451 13.0015 12.5803 12.7864 12.6335 12.5835C12.6867 12.3805 12.8494 12.222 13.0577 12.1702C13.2661 12.1183 13.4868 12.1814 13.6334 12.3347L15.9853 14.626C16.0963 14.7329 16.1588 14.8787 16.1588 15.0308C16.1588 15.183 16.0963 15.3287 15.9853 15.4357C15.8748 15.5428 15.7256 15.6031 15.5698 15.6037Z" fill="#ACACAC" stroke="#ACACAC" stroke-width="0.5"/>
</svg>
