<svg width="18" height="18" viewBox="0 0 18 18" fill="none" xmlns="http://www.w3.org/2000/svg">
<path d="M9.82752 0.44527C9.70703 0.347867 9.5543 0.299781 9.39982 0.310573C9.24531 0.321365 9.10064 0.390351 8.99505 0.5036C8.88945 0.616849 8.83058 0.765888 8.83058 0.920813V3.39028C3.7803 3.71212 0.900024 7.90303 0.900024 14.9971C0.900298 15.1473 0.955762 15.2923 1.05603 15.4042C1.1563 15.5162 1.29414 15.5874 1.44345 15.6042C1.46626 15.6073 1.48908 15.6089 1.51202 15.6091C1.65082 15.6091 1.78551 15.5618 1.89385 15.4752C2.00231 15.3886 2.07799 15.2677 2.10873 15.1323C2.15408 14.9334 3.25133 10.4199 8.82961 9.57215V11.937C8.82974 12.0919 8.88849 12.2409 8.99408 12.3542C9.09982 12.4674 9.24435 12.5364 9.39885 12.5472C9.55335 12.558 9.70622 12.5099 9.82655 12.4125L16.6352 6.90447C16.7786 6.78822 16.862 6.61349 16.862 6.42892C16.862 6.24435 16.7786 6.06966 16.6352 5.95338L9.82752 0.44527ZM10.0546 10.6546V8.87976C10.0552 8.70723 9.98312 8.54248 9.8558 8.42583C9.72862 8.3093 9.55799 8.25193 9.38627 8.26778C8.00747 8.34155 6.66148 8.71559 5.4425 9.36379C4.22356 10.0121 3.16073 10.9188 2.32865 12.0207C2.8464 8.47282 4.53746 4.60669 9.44436 4.5927C9.60665 4.5927 9.76238 4.52822 9.87713 4.41347C9.99188 4.29872 10.0564 4.14298 10.0564 3.98069V2.20587L15.278 6.42871L10.0546 10.6546Z" fill="#838383"/>
</svg>
