<svg width="28" height="28" viewBox="0 0 28 28" fill="none" xmlns="http://www.w3.org/2000/svg">
<path d="M18.0592 4.15698C16.6348 4.13637 15.1496 4.54925 13.9985 5.70848C12.8386 4.5515 11.3391 4.1569 9.95332 4.1569C6.50985 4.1569 3.0625 7.00989 3.0625 11.0475C3.0625 14.9405 5.55247 18.1815 8.01519 20.3849C9.26128 21.4998 10.5393 22.3848 11.5772 22.9944C12.0959 23.2989 12.5633 23.5399 12.9447 23.7077C13.1348 23.7913 13.3131 23.8611 13.472 23.9115C13.6102 23.9553 13.805 24.0084 14.0003 24.0084C14.1957 24.0084 14.3905 23.9553 14.5287 23.9115C14.6875 23.8611 14.8659 23.7913 15.0559 23.7077C15.4373 23.5399 15.9048 23.2989 16.4234 22.9944C17.4613 22.3848 18.7394 21.4998 19.9854 20.3849C22.4482 18.1815 24.9381 14.9405 24.9381 11.0475C24.9381 7.00032 21.4828 4.20652 18.0592 4.15698Z" fill="white"/>
</svg>
