<svg width="22" height="20" viewBox="0 0 22 20" fill="none" xmlns="http://www.w3.org/2000/svg">
<g clip-path="url(#clip0_2691_31957)">
<path d="M15.0819 0.000736197C13.6495 -0.020027 12.1558 0.395925 10.9982 1.56379C9.83164 0.398198 8.32366 0.000650749 6.92999 0.000650749C3.46695 0.000650749 0 2.87489 0 6.94257C0 10.8645 2.50412 14.1297 4.98085 16.3495C6.23402 17.4727 7.51932 18.3644 8.56313 18.9784C9.0847 19.2853 9.55483 19.528 9.93842 19.6971C10.1296 19.7813 10.3089 19.8516 10.4687 19.9024C10.6076 19.9465 10.8035 20 11 20C11.1965 20 11.3924 19.9465 11.5314 19.9024C11.6911 19.8516 11.8705 19.7813 12.0616 19.6971C12.4452 19.528 12.9153 19.2853 13.4369 18.9784C14.4807 18.3644 15.766 17.4727 17.0192 16.3495C19.4959 14.1297 22 10.8645 22 6.94257C22 2.86525 18.525 0.0506413 15.0819 0.000736197Z" fill="white"/>
</g>
<defs>
<clipPath id="clip0_2691_31957">
<rect width="22" height="20" fill="white"/>
</clipPath>
</defs>
</svg>
