<svg width="22" height="20" viewBox="0 0 22 20" fill="none" xmlns="http://www.w3.org/2000/svg">
<g clip-path="url(#clip0_2674_31953)">
<path fill-rule="evenodd" clip-rule="evenodd" d="M10.9982 1.56379C12.1558 0.395925 13.6495 -0.020027 15.0819 0.000736197C18.525 0.0506413 22 2.86525 22 6.94257C22 10.8645 19.4959 14.1297 17.0192 16.3495C15.766 17.4727 14.4807 18.3644 13.4369 18.9784C12.9153 19.2853 12.4452 19.528 12.0616 19.6971C11.8705 19.7813 11.6911 19.8516 11.5314 19.9024C11.3924 19.9465 11.1965 20 11 20C10.8035 20 10.6076 19.9465 10.4687 19.9024C10.3089 19.8516 10.1296 19.7813 9.93842 19.6971C9.55483 19.528 9.0847 19.2853 8.56313 18.9784C7.51932 18.3644 6.23402 17.4727 4.98085 16.3495C2.50412 14.1297 0 10.8645 0 6.94257C0 2.87489 3.46695 0.00065075 6.92999 0.00065075C8.32366 0.00065075 9.83164 0.398198 10.9982 1.56379ZM15.0581 1.65341C13.7405 1.63431 12.5128 2.08238 11.6864 3.32402C11.5334 3.55392 11.2758 3.69201 11 3.69201C10.7242 3.69201 10.4666 3.55392 10.3136 3.32402C9.49225 2.08989 8.24212 1.6535 6.92999 1.6535C4.28802 1.6535 1.64995 3.87552 1.64995 6.94257C1.64995 10.1554 3.72459 13.0057 6.081 15.1177C7.2444 16.1605 8.43927 16.9888 9.39867 17.5532C9.8787 17.8356 10.2909 18.0467 10.6029 18.1842C10.7596 18.2533 10.8813 18.2995 10.9675 18.3268C10.9798 18.3308 10.9906 18.334 11 18.3368C11.0094 18.334 11.0202 18.3308 11.0325 18.3268C11.1187 18.2995 11.2405 18.2533 11.3971 18.1842C11.7091 18.0467 12.1213 17.8356 12.6013 17.5532C13.5607 16.9888 14.7556 16.1605 15.919 15.1177C18.2754 13.0057 20.35 10.1554 20.35 6.94257C20.35 3.88516 17.7201 1.69199 15.0581 1.65341Z" fill="white"/>
</g>
<defs>
<clipPath id="clip0_2674_31953">
<rect width="22" height="20" fill="white"/>
</clipPath>
</defs>
</svg>
