<svg width="28" height="28" viewBox="0 0 28 28" fill="none" xmlns="http://www.w3.org/2000/svg">
<path fill-rule="evenodd" clip-rule="evenodd" d="M13.9985 5.70848C15.1496 4.54925 16.6348 4.13637 18.0592 4.15698C21.4828 4.20652 24.9381 7.00032 24.9381 11.0475C24.9381 14.9405 22.4482 18.1815 19.9854 20.3849C18.7394 21.4998 17.4613 22.3848 16.4234 22.9944C15.9048 23.2989 15.4373 23.5399 15.0559 23.7077C14.8659 23.7913 14.6875 23.8611 14.5287 23.9115C14.3905 23.9553 14.1957 24.0084 14.0003 24.0084C13.805 24.0084 13.6102 23.9553 13.472 23.9115C13.3131 23.8611 13.1348 23.7913 12.9447 23.7077C12.5633 23.5399 12.0959 23.2989 11.5772 22.9944C10.5393 22.3848 9.26128 21.4998 8.01519 20.3849C5.55247 18.1815 3.0625 14.9405 3.0625 11.0475C3.0625 7.00988 6.50985 4.1569 9.95332 4.1569C11.3391 4.1569 12.8386 4.5515 13.9985 5.70848ZM18.0355 5.79743C16.7254 5.77848 15.5045 6.22324 14.6829 7.45569C14.5307 7.6839 14.2746 7.82097 14.0003 7.82097C13.7261 7.82097 13.4699 7.6839 13.3178 7.4557C12.5011 6.23069 11.258 5.79752 9.95332 5.79752C7.32628 5.79752 4.70312 8.00312 4.70312 11.0475C4.70312 14.2366 6.76604 17.0658 9.10913 19.1622C10.266 20.1972 11.4541 21.0194 12.408 21.5797C12.8854 21.86 13.2953 22.0695 13.6055 22.206C13.7612 22.2746 13.8823 22.3204 13.968 22.3476C13.9802 22.3515 13.991 22.3547 14.0003 22.3575C14.0097 22.3547 14.0204 22.3515 14.0327 22.3476C14.1184 22.3204 14.2394 22.2746 14.3952 22.206C14.7054 22.0695 15.1153 21.86 15.5926 21.5797C16.5466 21.0194 17.7347 20.1972 18.8915 19.1622C21.2346 17.0658 23.2975 14.2366 23.2975 11.0475C23.2975 8.01269 20.6824 5.83573 18.0355 5.79743Z" fill="white"/>
</svg>
